# xmcd
#
# Track frame offsets: 
#        150
#        12164
#        22640
#        38211
#        48289
#        71607
#        87146
#        98208
#        119918
#        132506
#        144598
#        154771
#
# Disc length: 2273 seconds
#
# Revision: 0
# Processed by: cddbd v1.5.2PL0 Copyright (c) Steve Scherf et al.
# Submitted via: ExactAudioCopy v0.95b4
#
DISCID=9b08df0c
DTITLE=Rosie Flores - Girl Of The Century
DYEAR=2009
DGENRE=Country
TTITLE0=Chauffeur
TTITLE1=This Little Girls Gone Rockin'
TTITLE2=Halfway Home
TTITLE3=I Ain't Got You
TTITLE4=Dark Enough At Midnight
TTITLE5=Little Bells
TTITLE6=Get Rhythm
TTITLE7=Last Song
TTITLE8=You're The One
TTITLE9=This Cat's In The Doghouse
TTITLE10=Whose Gonna Take Your Garbage Out?
TTITLE11=Girl Of The Century
EXTD=
EXTT0=
EXTT1=
EXTT2=
EXTT3=
EXTT4=
EXTT5=
EXTT6=
EXTT7=
EXTT8=
EXTT9=
EXTT10=
EXTT11=
PLAYORDER=
